<svg width="120" height="20" viewBox="0 0 120 20" fill="none" xmlns="http://www.w3.org/2000/svg">
<path d="M25.424 15.16C23.9947 15.16 22.9067 14.776 22.16 14.008C21.424 13.24 21.0293 12.1787 20.976 10.824C20.9653 10.536 20.96 10.0667 20.96 9.416C20.96 8.75467 20.9653 8.27467 20.976 7.976C21.0293 6.632 21.4293 5.576 22.176 4.808C22.9227 4.02933 24.0053 3.64 25.424 3.64C26.3733 3.64 27.1787 3.81067 27.84 4.152C28.5013 4.48267 29.0027 4.92 29.344 5.464C29.6853 6.008 29.872 6.58933 29.904 7.208V7.24C29.904 7.32533 29.8667 7.4 29.792 7.464C29.728 7.51733 29.6533 7.544 29.568 7.544H28.688C28.4747 7.544 28.3413 7.42133 28.288 7.176C28.1067 6.376 27.7813 5.816 27.312 5.496C26.8427 5.16533 26.2133 5 25.424 5C23.5893 5 22.64 6.01867 22.576 8.056C22.5653 8.344 22.56 8.78667 22.56 9.384C22.56 9.98133 22.5653 10.4347 22.576 10.744C22.64 12.7813 23.5893 13.8 25.424 13.8C26.2133 13.8 26.8427 13.64 27.312 13.32C27.792 12.9893 28.1173 12.424 28.288 11.624C28.32 11.4853 28.368 11.3893 28.432 11.336C28.496 11.2827 28.5813 11.256 28.688 11.256H29.568C29.664 11.256 29.744 11.288 29.808 11.352C29.8827 11.4053 29.9147 11.48 29.904 11.576C29.872 12.2053 29.6853 12.792 29.344 13.336C29.0027 13.88 28.5013 14.3227 27.84 14.664C27.1787 14.9947 26.3733 15.16 25.424 15.16ZM32.2243 18.04C32.1176 18.04 32.0269 18.0027 31.9523 17.928C31.8883 17.864 31.8563 17.7787 31.8563 17.672V7.048C31.8563 6.94133 31.8883 6.856 31.9523 6.792C32.0269 6.71733 32.1176 6.68 32.2243 6.68H32.9603C33.0669 6.68 33.1523 6.71733 33.2163 6.792C33.2909 6.856 33.3283 6.94133 33.3283 7.048V7.752C33.9256 6.93067 34.8003 6.52 35.9523 6.52C37.0723 6.52 37.9096 6.872 38.4643 7.576C39.0296 8.28 39.3336 9.18667 39.3763 10.296C39.3869 10.4133 39.3923 10.5947 39.3923 10.84C39.3923 11.0853 39.3869 11.2667 39.3763 11.384C39.3336 12.4827 39.0296 13.3893 38.4643 14.104C37.8989 14.808 37.0616 15.16 35.9523 15.16C34.8429 15.16 33.9789 14.76 33.3603 13.96V17.672C33.3603 17.7787 33.3283 17.864 33.2643 17.928C33.2003 18.0027 33.1149 18.04 33.0082 18.04H32.2243ZM35.6163 13.864C36.3736 13.864 36.9229 13.6293 37.2643 13.16C37.6163 12.6907 37.8083 12.072 37.8403 11.304C37.8509 11.1973 37.8563 11.0427 37.8563 10.84C37.8563 8.824 37.1096 7.816 35.6163 7.816C34.8803 7.816 34.3256 8.06133 33.9523 8.552C33.5896 9.032 33.3923 9.608 33.3603 10.28L33.3443 10.888L33.3603 11.512C33.3816 12.1413 33.5843 12.6907 33.9683 13.16C34.3523 13.6293 34.9016 13.864 35.6163 13.864ZM43.6915 15.16C43.1688 15.16 42.6835 15.0533 42.2355 14.84C41.7875 14.6267 41.4302 14.3387 41.1635 13.976C40.9075 13.6027 40.7795 13.192 40.7795 12.744C40.7795 12.04 41.0675 11.464 41.6435 11.016C42.2302 10.5573 43.0195 10.2587 44.0115 10.12L46.3955 9.784V9.32C46.3955 8.232 45.7715 7.688 44.5235 7.688C44.0542 7.688 43.6702 7.78933 43.3715 7.992C43.0728 8.184 42.8488 8.41333 42.6995 8.68C42.6675 8.776 42.6248 8.84533 42.5715 8.888C42.5288 8.93067 42.4648 8.952 42.3795 8.952H41.6915C41.5955 8.952 41.5102 8.92 41.4355 8.856C41.3715 8.78133 41.3395 8.696 41.3395 8.6C41.3502 8.344 41.4675 8.056 41.6915 7.736C41.9262 7.40533 42.2835 7.12267 42.7635 6.888C43.2435 6.64267 43.8355 6.52 44.5395 6.52C45.7342 6.52 46.5928 6.80267 47.1155 7.368C47.6382 7.92267 47.8995 8.616 47.8995 9.448V14.632C47.8995 14.7387 47.8622 14.8293 47.7875 14.904C47.7235 14.968 47.6382 15 47.5315 15H46.7955C46.6888 15 46.5982 14.968 46.5235 14.904C46.4595 14.8293 46.4275 14.7387 46.4275 14.632V13.944C46.1928 14.2853 45.8515 14.5733 45.4035 14.808C44.9555 15.0427 44.3848 15.16 43.6915 15.16ZM44.0275 13.96C44.7208 13.96 45.2862 13.736 45.7235 13.288C46.1715 12.8293 46.3955 12.1733 46.3955 11.32V10.872L44.5395 11.144C43.7822 11.2507 43.2115 11.432 42.8275 11.688C42.4435 11.9333 42.2515 12.248 42.2515 12.632C42.2515 13.0587 42.4275 13.3893 42.7795 13.624C43.1315 13.848 43.5475 13.96 44.0275 13.96ZM50.5676 15C50.461 15 50.3703 14.968 50.2956 14.904C50.2316 14.8293 50.1996 14.7387 50.1996 14.632V7.048C50.1996 6.94133 50.2316 6.856 50.2956 6.792C50.3703 6.71733 50.461 6.68 50.5676 6.68H53.8956C54.877 6.68 55.6236 6.88267 56.1356 7.288C56.6583 7.68267 56.9196 8.22667 56.9196 8.92C56.9196 9.37867 56.8343 9.736 56.6636 9.992C56.493 10.2373 56.2316 10.4507 55.8796 10.632C56.2636 10.792 56.5623 11.0587 56.7756 11.432C56.9996 11.8053 57.1116 12.2053 57.1116 12.632C57.1116 13.4 56.8396 13.9867 56.2956 14.392C55.7623 14.7973 55.005 15 54.0236 15H50.5676ZM53.7996 10.216C54.3223 10.216 54.733 10.104 55.0316 9.88C55.3303 9.656 55.4796 9.34133 55.4796 8.936C55.4796 8.54133 55.3356 8.264 55.0476 8.104C54.7596 7.93333 54.3436 7.848 53.7996 7.848H51.6716V10.216H53.7996ZM53.8956 13.832C54.429 13.832 54.845 13.7307 55.1436 13.528C55.453 13.3253 55.6076 13.0267 55.6076 12.632C55.6076 12.2053 55.469 11.896 55.1916 11.704C54.9143 11.5013 54.4823 11.4 53.8956 11.4H51.6716V13.832H53.8956ZM59.5364 15C59.4297 15 59.339 14.968 59.2644 14.904C59.2004 14.8293 59.1684 14.7387 59.1684 14.632V7.048C59.1684 6.94133 59.2004 6.856 59.2644 6.792C59.339 6.71733 59.4297 6.68 59.5364 6.68H60.3044C60.411 6.68 60.4964 6.71733 60.5604 6.792C60.635 6.856 60.6724 6.94133 60.6724 7.048V10.12H65.0244V7.048C65.0244 6.94133 65.0564 6.856 65.1204 6.792C65.195 6.71733 65.2857 6.68 65.3924 6.68H66.1444C66.251 6.68 66.3364 6.71733 66.4004 6.792C66.475 6.856 66.5124 6.94133 66.5124 7.048V14.632C66.5124 14.7387 66.475 14.8293 66.4004 14.904C66.3364 14.968 66.251 15 66.1444 15H65.3924C65.2857 15 65.195 14.968 65.1204 14.904C65.0564 14.8293 65.0244 14.7387 65.0244 14.632V11.4H60.6724V14.632C60.6724 14.7387 60.635 14.8293 60.5604 14.904C60.4964 14.968 60.411 15 60.3044 15H59.5364ZM75.9904 6.68C76.0757 6.68 76.1504 6.712 76.2144 6.776C76.289 6.84 76.3264 6.91467 76.3264 7V14.632C76.3264 14.7387 76.289 14.8293 76.2144 14.904C76.1504 14.968 76.065 15 75.9584 15H75.2064C75.0997 15 75.009 14.968 74.9344 14.904C74.8704 14.8293 74.8384 14.7387 74.8384 14.632V8.824L70.4064 14.76C70.289 14.92 70.1504 15 69.9904 15H69.2704C69.1744 15 69.089 14.968 69.0144 14.904C68.9504 14.8293 68.9184 14.7493 68.9184 14.664V7.048C68.9184 6.94133 68.9504 6.856 69.0144 6.792C69.089 6.71733 69.1797 6.68 69.2864 6.68H70.0544C70.161 6.68 70.2464 6.71733 70.3104 6.792C70.385 6.856 70.4224 6.94133 70.4224 7.048V12.824L74.8384 6.92C74.9557 6.76 75.0944 6.68 75.2544 6.68H75.9904ZM81.2124 15C81.1057 15 81.015 14.968 80.9404 14.904C80.8764 14.8293 80.8444 14.7387 80.8444 14.632V7.96H78.0604C77.9537 7.96 77.863 7.928 77.7884 7.864C77.7244 7.78933 77.6924 7.69867 77.6924 7.592V7.048C77.6924 6.94133 77.7244 6.856 77.7884 6.792C77.863 6.71733 77.9537 6.68 78.0604 6.68H85.1004C85.207 6.68 85.2924 6.71733 85.3564 6.792C85.431 6.856 85.4684 6.94133 85.4684 7.048V7.592C85.4684 7.69867 85.431 7.78933 85.3564 7.864C85.2924 7.928 85.207 7.96 85.1004 7.96H82.3164V14.632C82.3164 14.7387 82.2844 14.8293 82.2204 14.904C82.1564 14.968 82.071 15 81.9644 15H81.2124ZM87.2239 15C87.1172 15 87.0265 14.968 86.9519 14.904C86.8879 14.8293 86.8559 14.7387 86.8559 14.632V7.048C86.8559 6.94133 86.8879 6.856 86.9519 6.792C87.0265 6.71733 87.1172 6.68 87.2239 6.68H87.9919C88.0985 6.68 88.1839 6.71733 88.2479 6.792C88.3225 6.856 88.3599 6.94133 88.3599 7.048V9.4H90.1519C91.2079 9.4 91.9919 9.65067 92.5039 10.152C93.0265 10.6427 93.2879 11.3413 93.2879 12.248C93.2879 13.1867 93.0105 13.88 92.4559 14.328C91.9119 14.776 91.0799 15 89.9599 15H87.2239ZM90.0239 13.8C90.6745 13.8 91.1439 13.6827 91.4319 13.448C91.7305 13.2133 91.8799 12.8133 91.8799 12.248C91.8799 11.6827 91.7305 11.2667 91.4319 11C91.1439 10.7333 90.6745 10.6 90.0239 10.6H88.3439V13.8H90.0239Z" fill="black"/>
<path d="M6 3H4V15H6V3Z" fill="black"/>
<path d="M2 7H0V15H2V7Z" fill="black"/>
<path d="M10 6H8V15H10V6Z" fill="black"/>
</svg>
