<svg width="145" height="36" viewBox="0 0 145 36" fill="none" xmlns="http://www.w3.org/2000/svg">
<path d="M27.2 0V35.3H19.6V32.9C17.9 34.8 15.5 36 12.1 36C5.5 36 0 30.2 0 22.7C0 15.2 5.5 9.4 12.1 9.4C15.5 9.4 18 10.6 19.6 12.5V0H27.2ZM19.6 22.7C19.6 18.9 17.1 16.5 13.6 16.5C10.1 16.5 7.6 18.9 7.6 22.7C7.6 26.5 10.1 28.9 13.6 28.9C17.1 28.8 19.6 26.5 19.6 22.7Z" fill="black"/>
<path d="M43.7001 29.1999C45.8001 29.1999 47.5001 28.3999 48.5001 27.2999L54.6001 30.7999C52.1001 34.1999 48.4001 35.9999 43.6001 35.9999C35.0001 35.9999 29.6001 30.1999 29.6001 22.6999C29.6001 15.1999 35.0001 9.3999 43.0001 9.3999C50.4001 9.3999 55.8001 15.0999 55.8001 22.6999C55.8001 23.7999 55.7001 24.7999 55.5001 25.6999H37.6001C38.6001 28.2999 40.9001 29.1999 43.7001 29.1999ZM48.3001 20.0999C47.5001 17.1999 45.2001 16.0999 42.9001 16.0999C40.0001 16.0999 38.1001 17.4999 37.4001 20.0999H48.3001Z" fill="black"/>
<path d="M82.0999 10.1001L72.7999 35.3001H64.1999L54.8999 10.1001H63.2999L68.5999 26.1001L73.8999 10.1001C73.8999 10.1001 82.0999 10.1001 82.0999 10.1001Z" fill="black"/>
<path d="M83.3999 10.1001H90.9999V35.3001H83.3999V10.1001Z" fill="black"/>
<path d="M93.6001 22.6999C93.6001 15.1999 99.3001 9.3999 107 9.3999C111.9 9.3999 116.2 11.9999 118.4 15.8999L111.8 19.6999C110.9 17.8999 109.1 16.8999 106.9 16.8999C103.6 16.8999 101.2 19.2999 101.2 22.6999C101.2 26.1999 103.6 28.4999 106.9 28.4999C109.1 28.4999 111 27.3999 111.8 25.6999L118.4 29.4999C116.3 33.3999 112 35.9999 107 35.9999C99.3001 35.9999 93.6001 30.1999 93.6001 22.6999Z" fill="black"/>
<path d="M132.8 29.1999C134.9 29.1999 136.6 28.3999 137.6 27.2999L143.7 30.7999C141.2 34.1999 137.5 35.9999 132.7 35.9999C124.1 35.9999 118.7 30.1999 118.7 22.6999C118.7 15.1999 124.2 9.3999 132.1 9.3999C139.5 9.3999 144.9 15.0999 144.9 22.6999C144.9 23.7999 144.8 24.7999 144.6 25.6999H126.7C127.7 28.2999 130 29.1999 132.8 29.1999ZM137.5 20.0999C136.7 17.1999 134.4 16.0999 132.1 16.0999C129.2 16.0999 127.3 17.4999 126.6 20.0999H137.5Z" fill="black"/>
<path d="M83.3999 0V10.1L90.9999 0H83.3999Z" fill="#510094"/>
</svg>
