<svg width="40" height="40" viewBox="0 0 40 40" fill="none" xmlns="http://www.w3.org/2000/svg">
<g clip-path="url(#clip0_24_643)">
<path d="M13.7001 0C14.7001 0.3 15.1001 1 15.0001 2.1C15.0001 3.6 15.0001 5.1 15.0001 6.6C15.0001 7.6 14.3001 8.4 13.3001 8.4C12.4001 8.4 11.6001 7.7 11.6001 6.7C11.6001 5 11.6001 3.4 11.6001 1.7C11.6001 0.8 12.1001 0.3 12.9001 0C13.2001 0 13.4001 0 13.7001 0Z" fill="black"/>
<path d="M0 13C0.4 12 1.1 11.7 2.1 11.7C3.6 11.7 5.1 11.7 6.6 11.7C7.9 11.7 8.7 12.9 8.2 14C7.9 14.7 7.4 15 6.7 15C5 15 3.3 15 1.6 15C0.7 15 0.2 14.5 0 13.7C0 13.4 0 13.2 0 13Z" fill="black"/>
<path d="M40.0001 27C39.6001 28 38.9001 28.4 37.9001 28.3C36.4001 28.3 34.9001 28.3 33.5001 28.3C32.3001 28.3 31.5001 27.4 31.8001 26.3C32.0001 25.6 32.6001 25 33.3001 25C35.0001 25 36.7001 25 38.4001 25C39.3001 25 39.7001 25.6 40.0001 26.3C40.0001 26.6 40.0001 26.8 40.0001 27Z" fill="black"/>
<path d="M26.3 40.0001C25.3 39.7001 24.9 39.0001 25 37.9001C25 36.4001 25 34.9001 25 33.4001C25 32.4001 25.7 31.6001 26.7 31.6001C27.6 31.6001 28.4 32.3001 28.4 33.4001C28.4 34.9001 28.4 36.4001 28.4 37.8001C28.4 38.8001 28.1 39.6001 27.1 39.9001C26.8 40.0001 26.6 40.0001 26.3 40.0001Z" fill="black"/>
<path d="M21.3001 26.9001C19.0001 26.9001 17.0001 26.2001 15.4001 24.6001C14.9001 24.1001 14.7001 23.5001 15.0001 22.8001C15.2001 22.1001 15.7001 21.8001 16.4001 21.7001C16.9001 21.6001 17.4001 21.9001 17.8001 22.2001C18.8001 23.1001 19.9001 23.7001 21.2001 23.7001C22.5001 23.7001 23.7001 23.2001 24.6001 22.2001C28.2001 18.7001 31.7001 15.1001 35.2001 11.6001C36.7001 10.1001 37.1001 8.10008 36.3001 6.40008C35.4001 4.40008 33.8001 3.10008 31.5001 3.10008C30.1001 3.10008 29.0001 3.70008 28.0001 4.70008C26.1001 6.60008 24.3001 8.40008 22.4001 10.3001C21.7001 11.0001 20.6001 11.0001 19.9001 10.3001C19.3001 9.60008 19.3001 8.70008 20.0001 8.00008C21.0001 7.00008 21.9001 6.00008 22.9001 5.10008C23.8001 4.20008 24.7001 3.30008 25.6001 2.40008C29.2001 -1.19992 36.4001 -0.599916 38.8001 4.50008C40.3001 7.60008 39.8001 11.8001 37.2001 14.4001C33.8001 17.7001 30.5001 21.1001 27.2001 24.4001C25.7001 26.1001 23.6001 26.9001 21.3001 26.9001Z" fill="black"/>
<path d="M18.1999 14C19.9999 14 21.9999 14.7 23.5999 16.3C24.0999 16.8 24.1999 17.4 23.9999 18.1C23.7999 18.7 23.2999 19.1 22.5999 19.2C21.9999 19.3 21.5999 19.1 21.1999 18.7C20.3999 18 19.5999 17.4 18.4999 17.2C16.7999 16.9 15.4999 17.5 14.2999 18.6C13.2999 19.6 12.2999 20.6 11.2999 21.6C9.09988 23.8 6.99988 26 4.79988 28.1C3.99988 28.9 3.49988 29.8 3.29988 30.9C2.99988 32.7 3.69988 34.2 4.99988 35.4C7.09988 37.4 9.79988 37.3 11.8999 35.3C13.4999 33.7 14.9999 32.2 16.5999 30.6C17.0999 30.1 17.6999 29.9 18.3999 30.2C18.9999 30.4 19.3999 30.9 19.4999 31.6C19.5999 32.1 19.3999 32.5 19.0999 32.9C17.3999 34.6 15.7999 36.4 13.9999 38C11.4999 40.2 8.59988 40.5 5.49988 39.5C2.59988 38.5 0.899878 36.4 0.299878 33.3C-0.200122 30.4 0.499878 27.8 2.69988 25.6C5.69988 22.6 8.69988 19.6 11.6999 16.6C13.3999 14.9 15.3999 14 18.1999 14Z" fill="black"/>
<path d="M5 3.30005C5.5 3.30005 5.8 3.50005 6.2 3.80005C7.9 5.50005 9.6 7.10005 11.2 8.80005C11.9 9.50005 11.8 10.5 11.2 11.2C10.6 11.8 9.5 11.8 8.9 11.2C7.2 9.50005 5.5 7.80005 3.9 6.10005C3.3 5.60005 3.2 5.00005 3.5 4.30005C3.7 3.70005 4.3 3.30005 5 3.30005Z" fill="black"/>
<path d="M29.9999 28.3C30.4999 28.3 30.7999 28.5 31.1999 28.8C32.8999 30.5 34.5999 32.1 36.1999 33.8C36.8999 34.5 36.7999 35.5 36.1999 36.1C35.5999 36.7 34.4999 36.7 33.8999 36.1C32.1999 34.4 30.4999 32.8 28.8999 31.1C28.3999 30.6 28.2999 29.9 28.5999 29.3C28.7999 28.7 29.2999 28.4 29.9999 28.3Z" fill="black"/>
</g>
<defs>
<clipPath id="clip0_24_643">
<rect width="40" height="40" fill="white"/>
</clipPath>
</defs>
</svg>
