<svg width="48" height="54" viewBox="0 0 48 54" fill="none" xmlns="http://www.w3.org/2000/svg">
<path d="M24 48C37.2548 48 48 37.2548 48 24C48 10.7452 37.2548 0 24 0C10.7452 0 0 10.7452 0 24C0 37.2548 10.7452 48 24 48Z" fill="#FFE17F"/>
<path d="M24.1 16.2C21 16.2 18.5 18.8 18.5 22C18.5 22.6 18.6 23.1 18.7 23.6C18.8 24 19 24.4999 19.2 24.7999C20 26.4999 21.2 28.0999 23.5 30.7999C23.7 30.9999 24.2 31.4 24.8 30.7C29.6 25.3 29.6 22.6 29.6 22.6C29.6 22.4 29.6 22.0999 29.6 21.9C29.7 18.8 27.2 16.2 24.1 16.2Z" fill="black"/>
<path d="M24 0C10.7 0 0 10.7 0 24C0 35.9 8.7 45.8 20.1 47.7L24.1 54L28.1 47.6C39.4 45.7 48 35.9 48 24C48 10.7 37.3 0 24 0ZM33 22.4C33 22.4 33.1 26.7 24.9 35.4C24.1 36.2 23.3 35.4 23.3 35.4C19.5 31 17.5 28.5 16.2 25.8C15.9 25.2 15.6 24.6 15.4 23.9C15.2 23.1 15 22.3 15 21.4C15 16.4 19.1 12.3 24.1 12.3C29.1 12.3 33.2 16.4 33.2 21.4C33.1 21.7 33 22 33 22.4Z" fill="black"/>
</svg>
