<svg width="4" height="7" viewBox="0 0 4 7" fill="none" xmlns="http://www.w3.org/2000/svg">
<g clip-path="url(#clip0_24_677)">
<path d="M3.7999 3.09995L0.799902 0.0999512C0.599902 -0.100049 0.299902 -0.100049 0.0999023 0.0999512C-9.76548e-05 0.299951 -9.76548e-05 0.699951 0.0999023 0.899951L2.6999 3.49995L0.0999023 6.09995C-9.76548e-05 6.29995 -9.76548e-05 6.59995 0.0999023 6.79995C0.199902 6.89995 0.399902 6.99995 0.499902 6.99995C0.599902 6.99995 0.799902 6.89995 0.899902 6.89995L3.8999 3.89995C3.8999 3.79995 3.9999 3.59995 3.9999 3.49995C3.9999 3.39995 3.8999 3.19995 3.7999 3.09995Z" fill="black"/>
</g>
<defs>
<clipPath id="clip0_24_677">
<rect width="4" height="7" fill="white"/>
</clipPath>
</defs>
</svg>
