<svg width="18" height="16" viewBox="0 0 18 16" fill="none" xmlns="http://www.w3.org/2000/svg">
<path d="M9.9001 6.1C10.0001 6.1 10.1001 6.1 10.1001 6.1C12.2001 6.1 14.3001 6.1 16.3001 6.1C17.0001 6.1 17.5001 6.4 17.8001 7C18.0001 7.4 18.0001 7.8 17.8001 8.3C17.2001 10.2 16.5001 12.1 15.9001 14C15.8001 14.3 15.7001 14.6 15.6001 14.8C15.4001 15.5 14.8001 15.9 14.1001 15.9C12.0001 15.9 9.8001 15.9 7.7001 15.9C7.4001 15.9 7.2001 15.9 6.9001 15.8C5.9001 15.5 5.1001 14.6 5.1001 13.5C5.1001 12 5.1001 10.5 5.1001 9C5.1001 8.1 5.1001 7.2 5.1001 6.3C5.1001 6.1 5.1001 6 5.2001 5.9C6.9001 4 8.5001 2.1 10.1001 0.1C10.1001 0 10.2001 0 10.3001 0C11.4001 0.6 12.0001 2 11.4001 3.2C11.0001 4.1 10.5001 5 10.1001 5.8C10.0001 5.9 10.0001 6 9.9001 6.1Z" fill="black"/>
<path d="M3.9 10.7001C3.9 12.1001 3.9 13.6001 3.9 15.0001C3.9 15.2001 3.8 15.2001 3.7 15.2001C2.5 15.2001 1.4 15.2001 0.2 15.2001C0 15.2001 0 15.2001 0 15.0001C0 12.1001 0 9.2001 0 6.3001C0 6.1001 0.1 6.1001 0.2 6.1001C1.4 6.1001 2.5 6.1001 3.7 6.1001C3.9 6.1001 3.9 6.2001 3.9 6.3001C3.9 7.8001 3.9 9.2001 3.9 10.7001Z" fill="black"/>
</svg>
